<?xml version="1.0" encoding="UTF-8"?>
<svg id="_レイヤー_1" data-name="レイヤー 1" xmlns="http://www.w3.org/2000/svg" viewBox="0 0 512 512">
  <defs>
    <style>
      .cls-1 {
        fill: #222;
      }
    </style>
  </defs>
  <g>
    <path class="cls-1" d="M471.09,28.82v434.67H20.5V28.82h450.59M473.09,26.82H18.5v438.67h454.59V26.82h0Z"/>
    <path class="cls-1" d="M491.5,48.51v434.67H40.91V48.51h450.59M493.5,46.51H38.91v438.67h454.59V46.51h0Z"/>
  </g>
  <path d="M486.12,445.1c.69,9.03-35.99,25-40.14,33.34-9,4.86-44.99,18.06-55.37,18.06-17.3,0-15.92-10.42-24.22-11.81-4.84-4.17-93.43-100.02-93.43-100.02v-3.47h-3.46v-3.47c-36.68-40.98-71.98-83.35-111.43-122.94-6.23,71.54-9,143.78-7.61,215.32-13.84,10.42-30.45,17.36-42.22,29.17-12.46,2.78-18.69,12.5-33.22,11.81h-2.08c-1.38-2.08-2.08-4.86-2.08-6.95,0-5.56,2.77-10.42,3.46-15.98,5.54-45.15,11.07-90.99,14.53-136.13,3.46-42.37,4.84-85.43,4.84-128.49,0-11.11-1.38-22.23-1.38-33.34-2.77-54.87-.69-110.44-13.15-163.92-11.07-3.47-22.15-1.39-33.22-1.39-5.54,0-10.38-.69-15.23-1.39C35.56,9.6,124.15,3.35,139.38,3.35l4.15.69c6.23,5.56,8.31,12.5,13.15,19.45,6.92,9.03,9,93.77,9,109.05,0,27.09-.69,54.87-2.77,81.96.69.69,1.38.69,2.77.69,6.23,0,74.06-63.21,81.67-72.23l2.77-1.39v-3.47c9.69-3.47,67.13-63.9,67.83-72.93,8.31-9.03,17.3-20.14,17.3-32.64,0-13.89-13.15-10.42-22.15-10.42-2.77,0-5.54-.69-7.61-2.08.69-9.72,21.46-9.03,29.07-11.11,2.77-1.39,4.84-4.17,7.61-4.86,3.46-1.39,31.14-3.47,35.99-3.47,9,0,17.99,3.47,17.99,14.59,0,20.14-74.06,100.02-92.74,115.3-2.08,1.39-5.54,2.78-7.61,4.86l-2.08,4.86-4.84,1.39c-5.54,6.25-12.46,11.11-17.3,17.36-1.38,2.08-6.23,3.47-8.31,4.86l-1.38,4.86c-6.92,2.78-49.14,40.28-55.37,47.23,2.77.69,2.77,2.78,3.46,4.86,5.54,15.28,50.52,49.31,53.29,61.82,29.07,31.95,61.6,61.82,93.43,90.29,20.76,18.75,38.76,39.59,61.6,55.57l4.84,1.39,3.46,4.86c2.08,1.39,4.15.69,6.23,1.39,7.61,4.17,17.3,16.67,27.68,16.67,11.07,0,15.92-8.33,25.61-9.72v2.08Z"/>
</svg>